<svg xmlns="http://www.w3.org/2000/svg" viewBox="0 0 960 540" role="img" aria-label="City travel cover">
  <defs>
    <linearGradient id="sky" x1="0" y1="0" x2="1" y2="1">
      <stop offset="0" stop-color="#f1c27d"/>
      <stop offset=".52" stop-color="#d9e7e4"/>
      <stop offset="1" stop-color="#657d8a"/>
    </linearGradient>
  </defs>
  <rect width="960" height="540" fill="url(#sky)"/>
  <circle cx="760" cy="112" r="62" fill="#fff0bd" opacity=".78"/>
  <g fill="#192b32">
    <rect x="84" y="278" width="78" height="170" rx="7"/>
    <rect x="210" y="232" width="90" height="216" rx="8"/>
    <rect x="354" y="176" width="96" height="272" rx="9"/>
    <rect x="528" y="132" width="96" height="316" rx="10"/>
    <rect x="700" y="236" width="88" height="212" rx="8"/>
  </g>
  <g fill="#f3d189" opacity=".78">
    <rect x="112" y="308" width="18" height="10" rx="2"/>
    <rect x="240" y="266" width="20" height="10" rx="2"/>
    <rect x="388" y="212" width="22" height="10" rx="2"/>
    <rect x="558" y="172" width="22" height="10" rx="2"/>
    <rect x="736" y="274" width="20" height="10" rx="2"/>
  </g>
  <rect y="424" width="960" height="116" fill="#304f58"/>
  <path d="M0 448 C170 420 310 482 500 448 S770 420 960 462 V540 H0Z" fill="#203a42" opacity=".72"/>
</svg>
