<svg xmlns="http://www.w3.org/2000/svg" viewBox="0 0 960 540" role="img" aria-label="Shanghai skyline travel cover">
  <defs>
    <linearGradient id="sky" x1="0" y1="0" x2="1" y2="1">
      <stop offset="0" stop-color="#f5c77b"/>
      <stop offset="0.48" stop-color="#d9eef5"/>
      <stop offset="1" stop-color="#557a8d"/>
    </linearGradient>
    <linearGradient id="river" x1="0" y1="0" x2="1" y2="0">
      <stop offset="0" stop-color="#c6d8d7"/>
      <stop offset="1" stop-color="#7ba4aa"/>
    </linearGradient>
  </defs>
  <rect width="960" height="540" fill="url(#sky)"/>
  <circle cx="760" cy="112" r="60" fill="#fff3c4" opacity=".8"/>
  <rect y="366" width="960" height="174" fill="url(#river)"/>
  <path d="M0 406 C150 378 300 438 475 402 S780 374 960 414 V540 H0Z" fill="#b7c9c4" opacity=".55"/>
  <g fill="#17242c">
    <rect x="70" y="278" width="64" height="146" rx="5"/>
    <rect x="156" y="244" width="74" height="180" rx="6"/>
    <rect x="252" y="198" width="72" height="226" rx="7"/>
    <rect x="356" y="164" width="88" height="260" rx="8"/>
    <rect x="486" y="128" width="84" height="296" rx="10"/>
    <rect x="630" y="190" width="76" height="234" rx="7"/>
    <rect x="748" y="236" width="78" height="188" rx="6"/>
  </g>
  <g fill="#203642">
    <rect x="536" y="86" width="54" height="338" rx="20"/>
    <path d="M563 50 L592 96 H534Z"/>
    <rect x="420" y="114" width="44" height="310" rx="18"/>
    <circle cx="442" cy="170" r="42" fill="#c65832"/>
    <circle cx="442" cy="170" r="24" fill="#f7d59f"/>
  </g>
  <g fill="#f8e4aa" opacity=".75">
    <rect x="96" y="304" width="18" height="10" rx="2"/>
    <rect x="182" y="275" width="22" height="10" rx="2"/>
    <rect x="276" y="230" width="20" height="10" rx="2"/>
    <rect x="385" y="196" width="25" height="10" rx="2"/>
    <rect x="512" y="164" width="22" height="10" rx="2"/>
    <rect x="650" y="225" width="22" height="10" rx="2"/>
  </g>
  <path d="M70 448 C220 425 350 482 512 452 S760 425 890 462" fill="none" stroke="#f9e4b5" stroke-width="10" stroke-linecap="round" opacity=".8"/>
</svg>
