<svg xmlns="http://www.w3.org/2000/svg" viewBox="0 0 960 540" role="img" aria-label="Tokyo night city travel cover">
  <defs>
    <linearGradient id="sky" x1="0" y1="0" x2="1" y2="1">
      <stop offset="0" stop-color="#2a2440"/>
      <stop offset=".55" stop-color="#615072"/>
      <stop offset="1" stop-color="#d8876c"/>
    </linearGradient>
  </defs>
  <rect width="960" height="540" fill="url(#sky)"/>
  <circle cx="770" cy="108" r="54" fill="#ffe1b5" opacity=".8"/>
  <g fill="#161927">
    <rect x="70" y="284" width="80" height="180" rx="6"/>
    <rect x="186" y="236" width="84" height="228" rx="8"/>
    <rect x="310" y="180" width="76" height="284" rx="8"/>
    <rect x="438" y="126" width="102" height="338" rx="10"/>
    <rect x="612" y="216" width="88" height="248" rx="8"/>
    <rect x="750" y="260" width="92" height="204" rx="8"/>
  </g>
  <path d="M545 464 L620 92 L694 464 Z" fill="#232b3f"/>
  <path d="M620 92 L650 166 H590Z" fill="#f05a5f"/>
  <g fill="#f8d07f" opacity=".85">
    <rect x="96" y="312" width="18" height="10" rx="2"/>
    <rect x="216" y="266" width="20" height="10" rx="2"/>
    <rect x="334" y="214" width="18" height="10" rx="2"/>
    <rect x="468" y="164" width="22" height="10" rx="2"/>
    <rect x="642" y="250" width="22" height="10" rx="2"/>
    <rect x="784" y="292" width="22" height="10" rx="2"/>
  </g>
  <path d="M0 452 C160 430 290 482 470 450 S740 425 960 464 V540 H0Z" fill="#101522" opacity=".8"/>
</svg>
